<svg width="121" height="127" viewBox="0 0 121 127" fill="none" xmlns="http://www.w3.org/2000/svg">
<path d="M47.7795 54.7823L48.1743 54.3679L48.017 53.8177C46.6877 49.1665 45.8149 44.5603 45.8149 39.9814C45.8149 18.3802 62.4419 1 82.9074 1C103.373 1 120 18.3804 120 39.9816C120 61.5828 103.373 78.963 82.9074 78.963C78.1078 78.963 73.7383 78.0474 69.7932 76.6673L69.1841 76.4542L68.739 76.9214L48.8679 97.7778H35.8519H34.8519V98.7778V111.889H22.4074H21.4074V112.889V126H1V103.882L47.7795 54.7823ZM79.6668 28.2222C79.6668 36.7248 85.8953 43.3333 94.1113 43.3333C102.327 43.3333 108.556 36.7248 108.556 28.2222C108.556 19.7197 102.327 13.1111 94.1113 13.1111C85.8953 13.1111 79.6668 19.7197 79.6668 28.2222Z" stroke="white" stroke-width="2"/>
</svg>
