<svg width="20" height="20" viewBox="0 0 20 20" fill="none" xmlns="http://www.w3.org/2000/svg">
<path d="M10 20C10.4141 20 10.6901 19.724 10.6901 19.3099C10.6901 14.5521 14.5521 10.6901 19.3099 10.6901C19.724 10.6901 20 10.4141 20 10C20 9.58594 19.724 9.30989 19.3099 9.30989C14.5521 9.30989 10.6901 5.44792 10.6901 0.690104C10.6901 0.276042 10.4141 0 10 0C9.58594 0 9.3099 0.276042 9.3099 0.690104C9.3099 5.44792 5.44792 9.30989 0.690105 9.30989C0.276043 9.30989 0 9.58594 0 10C0 10.4141 0.276043 10.6901 0.690105 10.6901C5.44792 10.6901 9.3099 14.5521 9.3099 19.3099C9.3099 19.6562 9.65495 20 10 20ZM4.34505 10.0026C6.89583 8.96875 8.96484 6.89974 9.9987 4.34896C11.0326 6.89974 13.1016 8.96875 15.6523 10.0026C13.1016 11.0365 11.0326 13.1055 9.9987 15.6562C9.03385 13.1055 6.96484 11.0365 4.34505 10.0026Z" fill="white"/>
</svg>
