<svg width="34" height="137" viewBox="0 0 34 137" fill="none" xmlns="http://www.w3.org/2000/svg">
<path d="M2.66112 17.0157L2.66114 17.0157L2.66055 17.01C2.44868 14.9893 2.66119 12.9465 3.28417 11.014C3.90715 9.08159 4.92658 7.30308 6.27594 5.79371C7.62528 4.28437 9.27435 3.07791 11.1159 2.25223C12.9574 1.42656 14.9506 1 16.966 1C18.9814 1 20.9746 1.42656 22.8161 2.25223C24.6577 3.0779 26.3067 4.28436 27.6561 5.79371C29.0054 7.30308 30.0249 9.08159 30.6478 11.014C31.2708 12.9465 31.4833 14.9893 31.2714 17.01L31.2709 17.0157L25.3209 77.0355L25.3202 77.0426L25.3196 77.0497C25.1407 79.1599 24.1817 81.1243 22.6342 82.5548C21.087 83.9851 19.0641 84.7778 16.966 84.7778C14.8679 84.7778 12.845 83.9851 11.2978 82.5548C9.75035 81.1243 8.79134 79.1599 8.61242 77.0497L8.61182 77.0426L8.61112 77.0355L2.66112 17.0157ZM1 119.886C1 117.769 1.41421 115.672 2.21883 113.717C3.02344 111.761 4.2026 109.985 5.68866 108.489C7.17471 106.993 8.93853 105.806 10.8793 104.997C12.82 104.188 14.8998 103.771 17 103.771C19.1002 103.771 21.18 104.188 23.1207 104.997C25.0615 105.806 26.8253 106.993 28.3113 108.489C29.7974 109.985 30.9766 111.761 31.7812 113.717C32.5858 115.672 33 117.769 33 119.886C33 124.162 31.3127 128.261 28.3113 131.283C25.3102 134.304 21.2413 136 17 136C12.7587 136 8.68977 134.304 5.68866 131.283C2.68733 128.261 1 124.162 1 119.886Z" stroke="white" stroke-width="2"/>
</svg>
