<svg width="117" height="119" viewBox="0 0 117 119" fill="none" xmlns="http://www.w3.org/2000/svg">
<path d="M58.25 10.375H95.75C97.8125 10.375 114.5 23.5 114.5 23.5C114.5 23.5 97.8125 36.625 95.75 36.625H62" stroke="white" stroke-width="2"/>
<path d="M56.375 36.625H18.875C16.8125 36.625 15.125 34.9375 15.125 32.875V14.125C15.125 12.0625 16.8125 10.375 18.875 10.375H52.625" stroke="white" stroke-width="2"/>
<path d="M56.375 76H18.875C16.8125 76 2 62.875 2 62.875C2 62.875 16.8125 49.75 18.875 49.75H52.625" stroke="white" stroke-width="2"/>
<path d="M58.25 49.75H95.75C97.8125 49.75 99.5 51.4375 99.5 53.5V72.25C99.5 74.3125 97.8125 76 95.75 76H62" stroke="white" stroke-width="2"/>
<path d="M63.875 76V113.5C63.875 115.563 62.1875 117.25 60.125 117.25H54.5C52.4375 117.25 50.75 115.563 50.75 113.5V76" stroke="white" stroke-width="2"/>
<path d="M63.875 36.625V49.75" stroke="white" stroke-width="2"/>
<path d="M50.75 10.375V4.75C50.75 2.6875 52.4375 1 54.5 1H60.125C62.1875 1 63.875 2.6875 63.875 4.75V10.375" stroke="white" stroke-width="2"/>
<path d="M50.75 49.75V36.625" stroke="white" stroke-width="2"/>
</svg>
