<svg width="150" height="128" viewBox="0 0 150 128" fill="none" xmlns="http://www.w3.org/2000/svg">
<path d="M48.4418 29.0216L48.0908 29.958L48.4418 29.0216C42.2626 26.7056 35.4618 26.4126 29.0925 28.187C22.7228 29.9611 17.1332 33.7063 13.1967 38.8495L13.9908 39.4572L13.1967 38.8495C9.25941 43.9937 7.1971 50.247 7.33706 56.6397C7.47698 63.0319 9.81107 69.196 13.9692 74.1757C18.1266 79.1548 23.8742 82.6704 30.315 84.1866L30.3151 84.1866C36.7562 85.7024 43.5382 85.1353 49.6114 82.572C55.6851 80.0084 60.716 75.588 63.9162 69.9895L63.9162 69.9895C67.1165 64.3902 68.3046 57.9288 67.2905 51.6101L66.3031 51.7686L67.2905 51.6101C67.0344 50.0145 68.1722 48.4576 69.932 48.1973C71.7002 47.9362 73.2912 49.1031 73.5491 50.7095C74.7692 58.3135 73.3416 66.0934 69.4831 72.8438C65.6237 79.5951 59.5465 84.9431 52.187 88.0496C44.8267 91.1562 36.6016 91.8447 28.7898 90.0062L28.5607 90.9796L28.7897 90.0062C20.9783 88.1682 14.025 83.9079 9.00446 77.8954C3.98451 71.8833 1.17643 64.455 1.00804 56.7638C0.839656 49.0727 3.3201 41.5385 8.07178 35.3302C12.824 29.1216 19.5838 24.5851 27.3075 22.4336L27.0394 21.4711L27.3075 22.4336C35.0311 20.282 43.2795 20.6379 50.7696 23.4454L50.7698 23.4455C52.4131 24.0611 53.1729 25.8025 52.5593 27.3109L52.5593 27.311C51.937 28.8411 50.1034 29.6444 48.4418 29.0216Z" stroke="white" stroke-width="2"/>
<path d="M34.3215 124.002V92.0148C34.3215 90.397 35.6997 89.0165 37.4867 89.0165C39.2738 89.0165 40.6519 90.397 40.6519 92.0148V124.002C40.6519 125.62 39.2738 127 37.4867 127C35.6997 127 34.3215 125.62 34.3215 124.002Z" stroke="white" stroke-width="2"/>
<path d="M21.8259 104.01C21.8259 102.392 23.204 101.012 24.9911 101.012H49.9822C51.7693 101.012 53.1474 102.392 53.1474 104.01C53.1474 105.628 51.7693 107.008 49.9822 107.008H24.9911C23.204 107.008 21.8259 105.628 21.8259 104.01Z" stroke="white" stroke-width="2"/>
<path d="M95.6512 28.1283L95.6513 28.1283C102.034 29.8582 107.652 33.5636 111.628 38.6788C115.604 43.7948 117.714 50.0338 117.622 56.4268C117.532 62.82 115.244 69.0004 111.124 74.0093C107.005 79.0179 101.284 82.5742 94.8546 84.1354C88.4255 85.6962 81.6393 85.177 75.5468 82.6567L75.5468 82.6567C73.9103 81.9796 72.0466 82.7196 71.3679 84.2313C70.6996 85.7198 71.397 87.4829 73.0142 88.152C80.3982 91.2069 88.6283 91.8377 96.4258 89.9443C104.223 88.0509 111.143 83.7421 116.118 77.6944L116.89 78.3296L116.118 77.6944C121.091 71.6478 123.843 64.1999 123.953 56.508C124.062 48.8156 121.524 41.2987 116.725 35.1241C111.926 28.9488 105.131 24.46 97.3911 22.3631L97.3911 22.3631C89.6512 20.2656 81.406 20.6796 73.9371 23.5397C66.4691 26.3995 60.2013 31.5423 56.1002 38.1618C51.9997 44.7806 50.2918 52.5085 51.2361 60.1483L95.6512 28.1283ZM95.6512 28.1283C89.2686 26.3989 82.47 26.7398 76.3087 29.0993C70.1466 31.4589 64.9601 35.7082 61.5597 41.196L61.5596 41.196M95.6512 28.1283L61.5596 41.196M61.5596 41.196C58.1591 46.6847 56.7385 53.1022 57.5237 59.451C57.722 61.0549 56.5278 62.5747 54.7575 62.7764L54.8707 63.77M61.5596 41.196L54.8707 63.77M54.8707 63.77L54.7575 62.7765C52.9813 62.9789 51.4354 61.7603 51.2361 60.1484L54.8707 63.77Z" stroke="white" stroke-width="2"/>
<path d="M112.29 36.1445C111.073 34.9767 111.073 33.1006 112.29 31.9328L143.529 1.94516L142.857 1.24548L143.529 1.94514C144.768 0.755184 146.795 0.755184 148.034 1.94514C149.251 3.11302 149.251 4.98899 148.034 6.15687L116.795 36.1445C115.556 37.3344 113.529 37.3344 112.29 36.1445Z" stroke="white" stroke-width="2"/>
<path d="M145.479 27.0395L145.479 27.0395C143.692 27.0181 142.333 25.6214 142.354 24.0043L142.354 24.0042L142.563 8.11235L142.576 7.08689L141.551 7.0993L124.996 7.29961C124.996 7.29961 124.996 7.29962 124.996 7.29962C123.209 7.321 121.812 5.95669 121.791 4.33883L121.791 4.33864C121.769 2.72155 123.129 1.32498 124.915 1.30336C124.915 1.30336 124.915 1.30336 124.915 1.30336L148.987 1.01233L148.684 24.0786C148.684 24.0787 148.684 24.0787 148.684 24.0787C148.663 25.6969 147.266 27.0612 145.479 27.0395Z" stroke="white" stroke-width="2"/>
</svg>
